<svg id="Layer_1" enable-background="new 0 0 27.3 27.5" viewBox="0 0 27.3 27.5" xmlns="http://www.w3.org/2000/svg"><g fill="#5d5a61"><path d="m24.3 27.5h-21.3c-1.7 0-3-1.3-3-3v-12.9c0-.9.4-1.7 1.1-2.3l9.8-8.3c1.6-1.4 4-1.4 5.6 0l9.8 8.3c.7.6 1.1 1.4 1.1 2.3v12.9c-.1 1.7-1.4 3-3.1 3zm-10.6-25.9c-.6 0-1.2.2-1.7.6l-9.8 8.3c-.3.3-.5.6-.5 1.1v12.9c0 .8.6 1.4 1.4 1.4h21.3c.8 0 1.4-.6 1.4-1.4v-12.9c0-.4-.2-.8-.5-1.1l-9.8-8.3c-.6-.4-1.2-.6-1.8-.6z"/><path d="m13.6 19.6c-.1 0-.3 0-.4-.1l-10.5-5.8c-.4-.2-.5-.7-.3-1.1s.7-.5 1.1-.3l10.1 5.6 10.1-5.6c.4-.2.9-.1 1.1.3s.1.9-.3 1.1l-10.5 5.8c-.2.1-.3.1-.4.1z"/><path d="m20.2 15.7c-.4 0-.8-.4-.8-.8v-5.1h-11.4v5.1c0 .4-.4.8-.8.8s-.8-.4-.8-.8v-5.9c0-.4.4-.8.8-.8h13c .4 0 .8.3.8.8v5.9c0 .5-.4.8-.8.8z"/><path d="m17.3 12.8h-7.3c-.4 0-.8-.4-.8-.8s.4-.8.8-.8h7.3c.4 0 .8.4.8.8s-.3.8-.8.8z"/><path d="m17.3 14.9h-7.3c-.4 0-.8-.4-.8-.8s.4-.8.8-.8h7.3c.4 0 .8.4.8.8s-.3.8-.8.8z"/></g></svg>