<svg id="Layer_1" enable-background="new 0 0 150 50" viewBox="0 0 150 50" xmlns="http://www.w3.org/2000/svg"><g fill="none"><path d="m100 0h50v50h-50z"/><path d="m50 0h50v50h-50z"/><path d="m0 0h50v50h-50z"/><g stroke="#231f20" stroke-miterlimit="10"><path d="m75 15.1c-5.5 0-9.9 4.4-9.9 9.9s4.4 9.9 9.9 9.9 9.9-4.4 9.9-9.9-4.4-9.9-9.9-9.9"/><path d="m68.9 22.5c0 .6.5 3.2 3 5.7s5.1 3 5.7 3.1c1.8.2 3-.8 3.5-2.4.1-.4-.1-.9-.5-1.1l-2-1c-.3-.2-.8-.1-1 .2l-1.2 1.2s-1-.1-2.9-2c-2-2-2-2.9-2-2.9l1.2-1.2c.3-.3.3-.7.2-1l-.8-1.7c-.2-.4-.7-.6-1.1-.5-1.5.4-2.3 1.8-2.1 3.6z"/><path d="m33.2 34.9h-16.4c-.9 0-1.7-.8-1.7-1.7v-9.9c0-.5.2-1 .6-1.3l7.5-6.4c1-.8 2.5-.8 3.5 0l7.5 6.4c.4.3.6.8.6 1.3v9.9c0 1-.7 1.7-1.6 1.7z" stroke-linecap="round" stroke-linejoin="round"/><path d="m16.9 24.4 8 4.5 8.1-4.5" stroke-linecap="round" stroke-linejoin="round"/><path d="m30 25.9v-4.6h-10v4.6" stroke-linecap="round" stroke-linejoin="round"/><path d="m22.2 23.6h5.6" stroke-linecap="round" stroke-linejoin="round"/><path d="m22.2 25.2h5.6" stroke-linecap="round" stroke-linejoin="round"/><path d="m133.7 32.3c-.4-1.3-3.5-3-4.9-3.6-.1 0-.2 0-.3 0l-3.5 1.7-3.1-1.7c-.1-.1-.2-.1-.3 0-1.2.5-4.9 2.2-5.3 3.6-.3 1-.4 1.5-.4 1.5v.1c0 .5.2.7.5.8.3.2.7.1 1.1.1h.2 14.6.3.3c.3 0 1.1 0 1.1-.9 0-.3 0-.5-.3-1.6z"/><path d="m128 29c-.4-1-.7-2-.7-2.1.2-.2.4-.5.7-.8.1-.1.1-.2.2-.3.2-.4.5-.7.7-1.2.2-.1.4-.3.5-.5.4-.8.7-2 .5-2.5-.1-.2-.2-.3-.4-.4 0-2.3-1-4.1-2.8-4.8-.3-.2-.9-.4-1.7-.6-.3-.1-.5-.3-.5-.3 0-.1-.1-.2-.2-.2-.1-.1-.2-.1-.3-.1-.3.1-.6.5-.7.8 0 .1-.1.2-.1.3-.5.1-1.2.3-1.3 1v .2c-.6.7-1.2 1.9-1.2 3.7-.2.1-.4.2-.5.4-.2.5.1 1.7.5 2.5.1.2.3.4.5.5.2.5.4.8.7 1.2.1.1.1.2.2.3.2.4.5.7.7.9 0 .2-.3 1-.6 2"/></g></g></svg>