<svg id="Layer_1" enable-background="new 0 0 139.9 67.4" viewBox="0 0 139.9 67.4" xmlns="http://www.w3.org/2000/svg"><path d="m .4 38.3h139.1v14.7h-139.1z" fill="#98c21f"/><path d="m40.9 0c4.9 0 9 1.6 12.3 4.9s4.9 7.3 4.9 12.1c0 4.7-1.6 8.8-4.9 12.1s-7.3 5-12 5c-4.8 0-8.5-1.3-12.1-4.9l19.9-12-20.4-12s1.3-1.4 3.9-2.9c2.6-1.5 5.4-2.3 8.4-2.3m.2 3.2c-2.4 0-4.7.6-6.8 1.9-2.1 1.2-3.9 3.1-5 5-1.2 2.1-1.8 4.5-1.8 7.1 0 3.8 1.6 6.9 4 9.7 2.7 2.7 5.8 4 9.6 4 2.5 0 4.8-.6 7-1.8s3.8-2.9 5-5 1.8-4.5 1.8-7c0-2.6-.6-4.9-1.8-7s-2.9-3.7-5.1-5c-2.1-1.3-4.4-1.9-6.9-1.9" fill="#757b82"/><path d="m62.7 9.2h3.1v4.3c1.2-1.6 2.6-2.9 4.1-3.7s3.1-1.2 4.9-1.2 3.4.5 4.8 1.4 2.4 2.1 3.1 3.7c.7 1.5 1 3.9 1 7.2v12.3h-3.1v-11.4c0-2.8-.1-4.6-.4-5.5-.4-1.6-1.1-2.8-2.1-3.6s-2.3-1.2-4-1.2c-1.9 0-3.5.6-5 1.8s-2.5 2.8-2.9 4.6c-.3 1.2-.4 3.4-.4 6.5v8.8h-3.1z" fill="#757b82"/><path d="m99.9 8.7c3.7 0 6.8 1.3 9.2 4 2.2 2.4 3.3 5.3 3.3 8.6s-1.2 6.3-3.5 8.8-5.3 3.7-9 3.7-6.7-1.2-9-3.7-3.5-5.4-3.5-8.8c0-3.3 1.1-6.2 3.3-8.6 2.4-2.7 5.5-4 9.2-4m0 3c-2.6 0-4.8.9-6.6 2.8s-2.8 4.2-2.8 6.8c0 1.7.4 3.3 1.3 4.8.8 1.5 2 2.6 3.4 3.5 1.4.8 3 1.2 4.7 1.2s3.3-.4 4.7-1.2 2.6-2 3.4-3.5 1.3-3.1 1.3-4.8c0-2.7-.9-5-2.8-6.8-1.9-1.9-4.1-2.8-6.6-2.8" fill="#757b82"/><path d="m48.5 17.2-16.8-9.9s-4.3 4.1-4.1 9.8c.1 5.8 4.4 9.9 4.4 9.9z" fill="#98c21f"/><path d="m48.5 17.2-16.8-9.9s-4.3 4.1-4.1 9.8c.1 5.8 4.4 9.9 4.4 9.9z" fill="none" stroke="#98c21f" stroke-miterlimit="3.864" stroke-width=".693"/><g fill="#757b82"><path d="m4.8 60.9c0-1.4.4-2.5 1.1-3.2.7-.8 1.7-1.2 2.9-1.2.8 0 1.5.2 2.1.5.6.4 1.1.9 1.4 1.5.3.7.5 1.4.5 2.2s-.2 1.6-.5 2.3-.8 1.2-1.4 1.5-1.3.5-2 .5c-.8 0-1.5-.2-2.1-.6s-1.1-.9-1.4-1.5c-.4-.6-.6-1.3-.6-2m1.1 0c0 1 .3 1.8.8 2.4s1.2.9 2 .9 1.5-.3 2-.9.8-1.4.8-2.5c0-.7-.1-1.3-.3-1.8s-.6-.9-1-1.2-.9-.4-1.5-.4c-.8 0-1.4.3-2 .8-.5.6-.8 1.5-.8 2.7"/><path d="m14.8 64.9v-6h .9v.9c.4-.7 1.1-1 1.9-1 .4 0 .7.1 1 .2s.5.3.7.5.3.5.3.8c0 .2.1.5.1 1v3.7h-1v-3.7c0-.4 0-.7-.1-.9s-.2-.4-.4-.5-.4-.2-.7-.2c-.4 0-.8.1-1.1.4s-.5.8-.5 1.6v3.3h-1.1z"/><path d="m21.6 61.9c0-1.1.3-1.9.9-2.5.5-.4 1.1-.7 1.9-.7s1.5.3 2 .8.8 1.3.8 2.2c0 .8-.1 1.4-.3 1.8s-.6.8-1 1-.9.4-1.4.4c-.8 0-1.5-.3-2-.8-.7-.4-.9-1.2-.9-2.2m1 0c0 .8.2 1.3.5 1.7s.8.6 1.3.6.9-.2 1.3-.6c.3-.4.5-1 .5-1.8 0-.7-.2-1.3-.5-1.7s-.8-.6-1.3-.6-.9.2-1.3.6-.5 1.1-.5 1.8"/><path d="m31.8 64.9 3.2-8.3h1.2l3.4 8.3h-1.2l-1-2.5h-3.5l-.9 2.5zm2.3-3.4h2.9l-.9-2.3c-.3-.7-.5-1.3-.6-1.7-.1.5-.3 1.1-.5 1.6z"/><path d="m44.9 62.7 1 .1c-.1.7-.4 1.2-.8 1.6s-1 .6-1.7.6c-.8 0-1.5-.3-2-.8s-.7-1.3-.7-2.3c0-.6.1-1.2.3-1.7s.5-.8 1-1.1c.4-.2.9-.4 1.4-.4.7 0 1.2.2 1.6.5s.7.8.8 1.4l-1 .2c-.1-.4-.3-.7-.5-.9s-.5-.3-.9-.3c-.5 0-.9.2-1.2.6s-.5.9-.5 1.7.2 1.4.5 1.8.7.5 1.2.5c.4 0 .7-.1 1-.4.3-.2.5-.6.5-1.1"/><path d="m51.5 64.2c-.4.3-.7.5-1.1.7-.3.1-.7.2-1.1.2-.7 0-1.2-.2-1.5-.5-.4-.3-.5-.7-.5-1.2 0-.3.1-.6.2-.8s.3-.4.5-.6c.2-.1.5-.3.7-.3.2-.1.5-.1.9-.2.8-.1 1.4-.2 1.8-.3 0-.1 0-.2 0-.3 0-.4-.1-.7-.3-.9-.3-.2-.6-.3-1.2-.3-.5 0-.8.1-1.1.3-.2.2-.4.5-.5.9l-1-.1c.1-.4.2-.8.4-1 .2-.3.5-.5.9-.6s.8-.2 1.4-.2c.5 0 .9.1 1.3.2.3.1.6.3.7.5.2.2.3.4.3.7 0 .2.1.5.1.9v1.4c0 .9 0 1.5.1 1.8 0 .3.1.5.2.7h-1.1c0-.5-.1-.7-.1-1m-.1-2.3c-.4.2-.9.3-1.7.4-.4.1-.7.1-.9.2s-.3.2-.4.3-.1.3-.1.5c0 .3.1.5.3.7s.5.3.9.3.7-.1 1-.3.5-.4.7-.7c.1-.2.2-.6.2-1z"/><path d="m58.6 64.9v-.8c-.4.6-.9.9-1.7.9-.5 0-.9-.1-1.3-.4s-.7-.6-.9-1.1-.3-1-.3-1.6.1-1.1.3-1.6.5-.9.9-1.1c.4-.3.8-.4 1.3-.4.4 0 .7.1 1 .2.3.2.5.4.7.6v-3h1v8.3zm-3.2-3c0 .8.2 1.3.5 1.7s.7.6 1.1.6.8-.2 1.1-.5c.3-.4.5-.9.5-1.7s-.2-1.4-.5-1.8-.7-.6-1.2-.6-.8.2-1.1.6-.4.9-.4 1.7"/><path d="m66 63 1.1.1c-.2.6-.5 1.1-.9 1.4s-1 .5-1.7.5c-.9 0-1.6-.3-2.1-.8s-.8-1.3-.8-2.3.3-1.8.8-2.3c.5-.6 1.2-.8 2-.8s1.5.3 2 .8.8 1.3.8 2.3v.3h-4.5c0 .7.2 1.2.6 1.5.3.3.8.5 1.3.5.4 0 .7-.1 1-.3.1-.2.3-.5.4-.9m-3.3-1.7h3.3c0-.5-.2-.9-.4-1.1-.3-.4-.7-.6-1.3-.6-.5 0-.9.2-1.2.5-.2.3-.4.7-.4 1.2"/><path d="m69.1 64.9v-6h .9v.8c.2-.3.4-.5.8-.7.3-.2.7-.3 1.1-.3s.8.1 1.1.3.5.4.6.8c.5-.7 1.1-1 1.9-1 .6 0 1.1.2 1.4.5s.5.8.5 1.5v4.1h-1v-3.8c0-.4 0-.7-.1-.9s-.2-.3-.4-.4-.4-.2-.6-.2c-.4 0-.8.1-1.1.4s-.4.7-.4 1.3v3.5h-1v-3.8c0-.5-.1-.8-.2-1-.2-.2-.4-.3-.8-.3-.3 0-.6.1-.8.2-.2.2-.4.4-.5.7s-.2.7-.2 1.3v3.1h-1.2z"/><path d="m80.5 57.8h-1v-1.2h1zm0 7.1h-1v-6h1z"/><path d="m86.8 62.7 1 .1c-.1.7-.4 1.2-.8 1.6s-1 .6-1.7.6c-.8 0-1.5-.3-2-.8s-.7-1.3-.7-2.3c0-.6.1-1.2.3-1.7s.5-.8 1-1.1c.4-.2.9-.4 1.4-.4.7 0 1.2.2 1.6.5s.7.8.8 1.4l-1 .2c-.1-.4-.3-.7-.5-.9s-.5-.3-.9-.3c-.5 0-.9.2-1.3.6-.3.4-.5.9-.5 1.7s.2 1.4.5 1.8.7.5 1.2.5c.4 0 .7-.1 1-.4.3-.2.5-.6.6-1.1"/><path d="m99.4 62 1.1.3c-.2.9-.6 1.6-1.2 2.1s-1.3.7-2.2.7-1.6-.2-2.2-.5c-.6-.4-1-.9-1.3-1.6s-.4-1.4-.4-2.2c0-.9.2-1.6.5-2.3.3-.6.8-1.1 1.4-1.5.6-.3 1.3-.5 2-.5.8 0 1.5.2 2.1.6s1 1 1.2 1.8l-1.1.3c-.2-.6-.5-1-.8-1.3-.4-.3-.8-.4-1.4-.4s-1.2.2-1.6.5-.7.7-.9 1.2-.3 1-.3 1.6c0 .7.1 1.3.3 1.8s.5.9 1 1.2c.4.3.9.4 1.4.4.6 0 1.1-.2 1.6-.5.3-.5.6-1 .8-1.7"/><path d="m102.1 61.9c0-1.1.3-1.9.9-2.5.5-.4 1.1-.7 1.9-.7s1.5.3 2 .8.8 1.3.8 2.2c0 .8-.1 1.4-.3 1.8s-.6.8-1 1-.9.4-1.4.4c-.8 0-1.5-.3-2-.8-.7-.4-.9-1.2-.9-2.2m1 0c0 .8.2 1.3.5 1.7s.8.6 1.3.6.9-.2 1.3-.6c.3-.4.5-1 .5-1.8 0-.7-.2-1.3-.5-1.7s-.8-.6-1.3-.6-.9.2-1.3.6c-.3.5-.5 1.1-.5 1.8"/><path d="m109.6 56.6h1v8.3h-1z"/><path d="m112.9 56.6h1v8.3h-1z"/><path d="m120.4 63 1.1.1c-.2.6-.5 1.1-.9 1.4s-1 .5-1.7.5c-.9 0-1.6-.3-2.1-.8s-.8-1.3-.8-2.3.3-1.8.8-2.3c.5-.6 1.2-.8 2-.8s1.5.3 2 .8.8 1.3.8 2.3v.3h-4.6c0 .7.2 1.2.6 1.5.3.3.8.5 1.3.5.4 0 .7-.1 1-.3.1-.2.3-.5.5-.9m-3.3-1.7h3.3c0-.5-.2-.9-.4-1.1-.3-.4-.7-.6-1.3-.6-.5 0-.9.2-1.2.5-.2.3-.4.7-.4 1.2"/><path d="m123.3 65.4 1 .1c0 .3.2.5.3.7.3.2.6.3 1 .3.5 0 .8-.1 1.1-.3s.4-.5.5-.8c.1-.2.1-.6.1-1.3-.4.5-1 .8-1.7.8-.8 0-1.5-.3-1.9-.9-.5-.6-.7-1.3-.7-2.1 0-.6.1-1.1.3-1.6s.5-.9.9-1.1c.4-.3.9-.4 1.4-.4.7 0 1.3.3 1.8.9v-.7h.9v5.2c0 .9-.1 1.6-.3 2s-.5.7-.9.9-.9.3-1.5.3c-.7 0-1.3-.2-1.7-.5s-.6-.8-.6-1.5m.8-3.6c0 .8.2 1.4.5 1.7.3.4.7.5 1.2.5s.9-.2 1.2-.5c.3-.4.5-.9.5-1.7 0-.7-.2-1.3-.5-1.7s-.7-.6-1.2-.6-.8.2-1.2.5c-.3.6-.5 1.1-.5 1.8"/><path d="m134.8 63 1.1.1c-.2.6-.5 1.1-.9 1.4s-1 .5-1.7.5c-.9 0-1.6-.3-2.1-.8s-.8-1.3-.8-2.3.3-1.8.8-2.3c.5-.6 1.2-.8 2-.8s1.5.3 2 .8.8 1.3.8 2.3v.3h-4.5c0 .7.2 1.2.6 1.5.3.3.8.5 1.3.5.4 0 .7-.1 1-.3 0-.2.2-.5.4-.9m-3.4-1.7h3.3c0-.5-.2-.9-.4-1.1-.3-.4-.7-.6-1.3-.6-.5 0-.9.2-1.2.5-.1.3-.3.7-.4 1.2"/></g><path d="m .4 38.3h139.1v14.7h-139.1z" fill="none" stroke="#98c21f" stroke-miterlimit="3.864" stroke-width=".713"/><path d="m6.5 50c0 .3-.1.5-.3.7-.2.3-.4.4-.7.4s-.5-.1-.7-.3c-.3-.2-.4-.4-.4-.7v-8c0-.3.1-.5.4-.7.2-.2.5-.3.8-.3s.5.1.7.3.3.5.3.8v7.8z" fill="#fff"/><path d="m11.9 49.6c0 .6-.2 1.1-.6 1.3s-.8.4-1.5.4c-.8 0-1.4-.2-1.8-.6-.1-.1-.2-.3-.2-.6 0-.4.3-.8.8-1.1.3-.2.5-.3.5-.4.2-.2.3-.4.3-.6v-4.3c0-.1-.1-.2-.3-.4-.2-.1-.3-.1-.5-.2-.6-.3-.8-.6-.8-1 0-.2.1-.4.3-.6s.4-.3.7-.3.6.1.8.4c.1.1.2.3.4.7.1.3.3.5.5.6.3.1.6.2.8.4.3.1.5.3.6.6.1.2.1.4.1.7v5z" fill="#fff"/><path d="m15.4 50c0 .3-.1.5-.3.7s-.5.4-.7.4c-.3 0-.5-.1-.7-.3-.3-.2-.4-.4-.4-.7v-8c0-.3.1-.5.4-.7.2-.2.5-.3.8-.3s.5.1.7.3.3.5.3.8v7.8z" fill="#fff"/><path d="m24.8 50c0 .3-.1.5-.3.7s-.5.4-.7.4-.5-.1-.8-.3-.4-.4-.4-.7v-1.9c0-.1-.1-.2-.2-.5-.1-.2-.2-.2-.3-.2h-2.7c-.1 0-.2.1-.3.2s-.1.2-.1.3v1.8s0 0-.1.1l-.1.2c0 .1-.1.2-.2.4-.2.3-.5.5-.9.5-.2 0-.4-.1-.7-.3s-.4-.4-.4-.6v-2.1c0-.3.3-.6.8-.9.2-.1.3-.1.5-.2s.4-.2.4-.3v-.9c0-.1-.1-.2-.3-.4-.2-.1-.3-.1-.5-.2-.6-.2-.8-.5-.8-.8v-2.2c0-.2.1-.4.3-.6s.5-.2.7-.2c.3 0 .6.1.8.4.2.2.3.5.3.9v.4l.2 1v .4c0 .1.1.2.2.3s.2.2.3.2h2.6c.1 0 .3-.1.4-.3s.2-.3.2-.4v-1.9c0-.3.1-.5.4-.7s.5-.3.8-.3.5.1.7.3.3.5.3.8v1.6c0 .4-.2.7-.5.9-.2.1-.5.3-.9.5-.3.2-.5.5-.5.8s.2.6.5.8.6.3.9.5.5.5.5.9v1.6z" fill="#fff"/><path d="m40.6 49.9c0 .3-.1.6-.3.8-.3.2-.5.3-.8.3s-.6-.1-.8-.4-.3-.6-.3-.9v-5.8c0-.1-.1-.2-.2-.3-.2-.1-.3-.2-.4-.2h-1.9c-.3 0-.6.2-.8.5s-.3.6-.3.9v5.4s-.1.1-.1.2c-.2.2-.2.4-.2.4-.4.1-.5.2-.6.2-.3.1-.7.2-1.4.2-1.3 0-1.9-.4-1.9-1.2 0-.2.1-.5.3-.7.1-.1.3-.3.6-.5s.5-.4.6-.5c.2-.2.3-.4.3-.7v-5.4c0-.3.1-.6.4-.9.2-.2.5-.4.8-.5.2-.1.4-.1.6-.1h2.7s.1 0 .4.1c.2 0 .4.1.5.1.2.1.3.1.4.3s.3.4.4.6c.1.3.2.6.3.6.1.1.2.3.5.4.2.1.4.2.6.2.5.2.7.6.7 1.1v5.8z" fill="#fff"/><path d="m44.1 45.5c0 .2-.1.4-.3.6s-.4.3-.7.3-.6-.1-.8-.4c-.2-.2-.4-.5-.4-.8v-2.6c0-.3.1-.6.3-.9s.5-.4.8-.4.5.1.7.2c.2.2.3.4.3.6v3.4z" fill="#fff"/><path d="m53.5 50.1c0 .4-.3.7-.8 1-.4.2-.8.2-1.3.2-.8 0-1.4-.2-1.8-.6-.1-.1-.2-.3-.2-.6s.2-.6.5-.9c.3-.2.6-.4.8-.6.3-.3.5-.6.5-.9v-3.3c0-.7-.6-1.1-1.8-1.1-.5 0-.8 0-1 .1-.3.1-.5.4-.7.7-.1.2-.1.3-.1.3v5.4c0 .3-.1.5-.4.8-.2.3-.5.4-.8.4s-.5-.1-.7-.3-.3-.4-.3-.7v-7.9c0-.3.1-.6.4-.8.2-.2.5-.3.8-.4.2 0 .4-.1.6-.1h4.6c.4 0 .8.1 1.1.3.4.2.7.5.7.9v8.1z" fill="#fff"/><path d="m62.7 42.1c0 .3-.2.6-.5.9-.3.2-.6.4-.9.6-.3.3-.5.6-.5 1v5.5c0 .3-.1.5-.4.7s-.5.3-.8.3-.5-.1-.7-.4-.3-.5-.3-.8v-5.3c0-.3-.1-.5-.3-.7s-.4-.4-.6-.5c0 0-.1 0-.2 0l-.7-.1c-.1 0-.2 0-.2 0-.7-.1-1.3-.3-1.6-.6-.1-.1-.2-.3-.2-.5 0-.6.5-1 1.4-1.2.2 0 .5-.1.6-.1h3.9c.8 0 1.4.2 1.8.6.1.2.2.4.2.6" fill="#fff"/><path d="m72.2 47.3v.1l-.1.2c-.1.3-.1.4-.1.5-.1.2-.1.4-.2.5s-.3.3-.6.4c-.3.2-.6.3-.7.4s-.3.3-.4.4c-.1.2-.2.4-.3.5-.2.4-.5.6-.9.6-.2 0-.5-.1-.7-.3s-.3-.4-.3-.6c0-.4.3-.7.8-1 .2-.1.3-.1.5-.2s.4-.2.4-.3v-4.4c0-.2-.1-.3-.3-.5s-.4-.3-.5-.3h-3.3c-.4 0-.7-.1-1-.3s-.5-.5-.5-.9.2-.6.5-.9c.3-.2.6-.3 1-.3h4.8c.6 0 1.1.2 1.4.5.3.4.5.9.5 1.5zm-6.1 5.3c0 .4-.1.8-.3 1.1-.2.4-.5.5-.9.5-.6 0-1-.4-1.1-1.1 0-.2-.1-.4-.1-.6v-5c0-.4.1-.8.3-1.1.2-.4.5-.5.9-.5s.7.2.9.5.3.6.3 1z" fill="#fff"/><path d="m81.6 50c0 .3-.1.5-.3.7s-.5.4-.7.4-.5-.1-.8-.3-.4-.4-.4-.7v-1.9c0-.1-.1-.2-.2-.5-.1-.2-.2-.2-.3-.2h-2.7c-.1 0-.2.1-.3.2s-.2.2-.2.3v1.8s0 0-.1.1l-.1.2c0 .1-.1.2-.2.4-.2.3-.5.5-.9.5-.2 0-.4-.1-.7-.3s-.4-.4-.4-.6v-2.1c0-.3.3-.6.8-.9.2-.1.3-.1.5-.2s.4-.2.4-.3v-.9c0-.1-.1-.2-.3-.4-.2-.1-.3-.1-.5-.2-.6-.2-.8-.5-.8-.8v-2.2c0-.2.1-.4.3-.6s.5-.2.7-.2c.3 0 .6.1.8.4.2.2.3.5.3.9v.4l.1 1.1v.4c0 .1.1.2.2.3s.2.2.3.2h2.6c.1 0 .3-.1.4-.3s.2-.3.2-.4v-1.9c0-.3.1-.5.4-.7s.5-.3.8-.3.5.1.7.3.3.5.3.8v1.6c0 .4-.2.7-.5.9-.2.1-.5.3-.9.5-.3.2-.5.5-.5.8s.2.6.5.8.6.3.9.5.5.5.5.9v1.5z" fill="#fff"/><path d="m91.2 49.4c0 .4-.1.8-.3 1.1-.2.4-.5.6-.9.6-.3 0-.6-.1-.8-.4-.2-.2-.3-.5-.4-.8 0-.2-.1-.4-.1-.6v-5.5s0-.1-.1-.2-.2-.1-.2-.1h-3.6c-.4 0-.8-.1-1.1-.3-.4-.2-.6-.5-.6-.9 0-.6.4-.9 1.2-1.1.4-.1 1-.1 1.8-.1h.5c.6 0 1 0 1.4.1.3.1.6.3.8.5.1.2.3.6.5 1 .1.2.4.4.9.6.4.2.7.5.8.8 0 .2.1.4.2.7v.1zm-6-.6v.3.3.2c-.1 1-.5 1.4-1.2 1.4-.5 0-.9-.3-1.1-1-.1-.3-.1-.8-.1-1.6 0-.7 0-1.2.1-1.6.2-.7.5-1 1.1-1 .5 0 .9.3 1.1 1 .1.3.1.9.1 1.6z" fill="#fff"/><path d="m105.4 49.4c0 .4-.1.8-.3 1.1-.2.4-.5.6-.9.6-.3 0-.6-.1-.8-.4-.2-.2-.3-.5-.4-.8 0-.2-.1-.4-.1-.6v-5.5s0-.1-.1-.2-.2-.1-.2-.1h-3.6c-.4 0-.8-.1-1.1-.3-.4-.2-.6-.5-.6-.9 0-.6.4-.9 1.2-1.1.4-.1 1-.1 1.8-.1h.5c.6 0 1 0 1.4.1.3.1.6.3.8.5.1.2.3.6.5 1 .1.2.4.4.9.6.4.2.7.5.8.8 0 .2.1.4.2.7v.1zm-6-.6v.3.3.2c-.1 1-.5 1.4-1.2 1.4-.5 0-.9-.3-1.1-1-.1-.2-.1-.7-.1-1.4s0-1.2.1-1.6c.2-.7.5-1 1.1-1 .5 0 .9.3 1.1 1 .1.3.1.9.1 1.6z" fill="#fff"/><path d="m108.8 45.5c0 .2-.1.4-.3.6s-.4.3-.7.3-.6-.1-.8-.4c-.2-.2-.4-.5-.4-.8v-2.6c0-.3.1-.6.3-.9s.5-.4.8-.4.5.1.7.2c.2.2.3.4.3.6v3.4z" fill="#fff"/><path d="m116.1 49.7c0 .3-.1.6-.3.9s-.5.4-.8.4-.6-.1-.8-.4-.3-.6-.3-.9v-5.7c0-.2-.1-.3-.2-.4s-.3-.2-.4-.2h-.5c-.9 0-1.6-.1-2-.3s-.6-.5-.6-1c0-.8.6-1.2 1.9-1.2.7 0 1.2.1 1.5.3.2.1.4.5.6 1 .1.3.3.5.6.6.2.1.5.2.7.3s.4.3.5.5.2.4.2.6v.1 5.4z" fill="#fff"/><path d="m125.8 47.3v.1l-.1.2c-.1.3-.1.4-.1.5-.1.2-.1.4-.2.5s-.3.3-.6.4c-.3.2-.6.3-.7.4s-.3.3-.4.4c-.1.2-.2.4-.3.5-.2.4-.5.6-.9.6-.2 0-.5-.1-.7-.3s-.3-.4-.3-.6c0-.4.3-.7.8-1 .2-.1.3-.1.5-.2s.4-.2.4-.3v-4.4c0-.2-.1-.3-.3-.5s-.4-.3-.5-.3h-3.3c-.4 0-.7-.1-1-.3s-.5-.5-.5-.9.2-.6.5-.9c.3-.2.6-.3 1-.3h4.8c.6 0 1.1.2 1.4.5.3.4.5.9.5 1.5zm-6 5.3c0 .4-.1.8-.3 1.1-.2.4-.5.5-.9.5-.6 0-1-.4-1.1-1.1 0-.2-.1-.4-.1-.6v-5c0-.4.1-.8.3-1.1.2-.4.5-.5.9-.5s.7.2.9.5.3.6.3 1z" fill="#fff"/><path d="m135.5 49.4c0 .4-.1.8-.3 1.1-.2.4-.5.6-.9.6-.3 0-.6-.1-.8-.4-.2-.2-.3-.5-.4-.8 0-.2-.1-.4-.1-.6v-5.5s0-.1-.1-.2-.2-.1-.2-.1h-3.6c-.4 0-.8-.1-1.1-.3-.4-.2-.6-.5-.6-.9 0-.6.4-.9 1.2-1.1.4-.1 1-.1 1.8-.1h.5c.6 0 1 0 1.4.1.3.1.6.3.8.5.1.2.3.6.5 1 .1.2.4.4.9.6.4.2.7.5.8.8 0 .2.1.4.2.7v.1zm-6-.6v.3.3.2c-.1 1-.5 1.4-1.2 1.4-.5 0-.9-.3-1.1-1-.1-.3-.1-.8-.1-1.6 0-.7 0-1.2.1-1.6.2-.7.5-1 1.1-1 .5 0 .9.3 1.1 1 .1.3.1.9.1 1.6z" fill="#fff"/></svg>