<?xml version="1.0" encoding="utf-8"?>
<!-- Generator: Adobe Illustrator 19.2.1, SVG Export Plug-In . SVG Version: 6.00 Build 0)  -->
<svg version="1.1" id="Layer_1" xmlns="http://www.w3.org/2000/svg" xmlns:xlink="http://www.w3.org/1999/xlink" x="0px" y="0px"
	 viewBox="0 0 27 29.5" style="enable-background:new 0 0 27 29.5;" xml:space="preserve">
<style type="text/css">
	.st0{fill:#5D5A61;}
</style>
<g>
	<g>
		<path class="st0" d="M27,29.5H0v-1c0-2.2,0.9-4,2.8-5.4l4.6-3c0.7-0.5,1.7-0.5,2.4-0.1l3.5,2.1l3.5-2.1c0.8-0.5,1.8-0.5,2.5,0
			l4.7,3.1c1.9,1.3,3,3.1,3,5.4V29.5z M1.9,27.5h22.9c-0.2-1.1-0.9-2-1.9-2.7l-4.6-3.1c-0.1-0.1-0.2,0-0.3,0l-4.5,2.8l-4.5-2.7
			c-0.1-0.1-0.2-0.1-0.3,0l-4.7,3C2.8,25.5,2.2,26.4,1.9,27.5z"/>
	</g>
	<g>
		<path class="st0" d="M9.9,22.2c-0.2,0-0.4-0.1-0.6-0.2c-0.4-0.3-0.5-1-0.2-1.4l0,0c0,0,0.5-0.7,0.6-2.5c-1.2-1.2-1.8-2.5-2.1-3.2
			c-0.2-0.1-0.5-0.2-0.7-0.3c-0.7-0.5-1.2-1.4-1.3-2.6c-0.2-1,0-1.8,0.5-2.4C6.1,9.3,6.3,9.1,6.5,9c0-1.3,0.2-4.1,1.9-5.7
			c0.3-0.3,0.6-0.5,1-0.6l0.9-0.4c0.1-0.5,0.3-1.1,0.8-1.8c0.2-0.2,0.4-0.4,0.7-0.5c0.3,0,0.6,0,0.8,0.2C13,0.6,13.5,0.8,14.1,1
			c1,0.4,2.3,0.8,3.8,2.4c2,1.4,2.4,4.2,2.4,5.6c0.2,0.1,0.4,0.3,0.6,0.5c0.5,0.6,0.6,1.4,0.5,2.4c-0.2,1.2-0.6,2.1-1.3,2.6
			c-0.2,0.2-0.5,0.3-0.7,0.3c-0.3,0.7-1,1.9-2.1,3.2c0.1,1.9,0.6,2.6,0.6,2.6c0.3,0.4,0.2,1.1-0.2,1.4c-0.4,0.3-1,0.3-1.4-0.2
			c-0.2-0.2-1-1.3-1.1-4.2c0-0.3,0.1-0.6,0.3-0.7c1.7-1.6,2.2-3.3,2.2-3.3c0.1-0.3,0.2-0.5,0.4-0.6c0.2-0.1,0.4-0.2,0.7-0.1
			c0.1,0,0.5-0.4,0.6-1.3c0.1-0.5,0-0.7-0.1-0.8c-0.6,0-1-0.5-1-1.1c0-1-0.2-3.8-1.6-4.7c-0.1,0-0.2-0.1-0.2-0.2
			c-1.1-1.2-2.1-1.6-3-1.9c-0.4-0.1-0.7-0.3-1.1-0.4c-0.1,0.4-0.2,0.6-0.2,0.6c0,0.4-0.3,0.7-0.6,0.8l-1.4,0.6
			C10,4.6,9.9,4.7,9.8,4.7C8.5,6,8.4,8.7,8.5,9.6c0,0.3-0.1,0.5-0.2,0.8s-0.4,0.3-0.7,0.3c-0.2,0-0.2,0.5-0.1,0.9
			c0.2,1,0.5,1.3,0.7,1.3c0.3-0.1,0.4,0,0.7,0.1c0.2,0.1,0.3,0.4,0.4,0.6c0,0,0.5,1.7,2.2,3.3c0.2,0.2,0.3,0.5,0.3,0.7
			c-0.1,2.8-0.9,4-1,4.2C10.4,22,10.1,22.2,9.9,22.2z"/>
	</g>
</g>
</svg>
