<svg id="Layer_1" enable-background="new 0 0 27 29.5" viewBox="0 0 27 29.5" xmlns="http://www.w3.org/2000/svg"><path d="m27 29.5h-27v-1c0-2.2.9-4 2.8-5.4l4.6-3c .7-.5 1.7-.5 2.4-.1l3.5 2.1 3.5-2.1c.8-.5 1.8-.5 2.5 0l4.7 3.1c1.9 1.3 3 3.1 3 5.4zm-25.1-2h22.9c-.2-1.1-.9-2-1.9-2.7l-4.6-3.1c-.1-.1-.2 0-.3 0l-4.5 2.8-4.5-2.7c-.1-.1-.2-.1-.3 0l-4.7 3c-1.2.7-1.8 1.6-2.1 2.7z" fill="#5d5a61"/><path d="m9.9 22.2c-.2 0-.4-.1-.6-.2-.4-.3-.5-1-.2-1.4l0 0s .5-.7.6-2.5c-1.2-1.2-1.8-2.5-2.1-3.2-.2-.1-.5-.2-.7-.3-.7-.5-1.2-1.4-1.3-2.6-.2-1 0-1.8.5-2.4 0-.3.2-.5.4-.6 0-1.3.2-4.1 1.9-5.7.3-.3.6-.5 1-.6l.9-.4c.1-.5.3-1.1.8-1.8.2-.2.4-.4.7-.5.3 0 .6 0 .8.2.4.4.9.6 1.5.8 1 .4 2.3.8 3.8 2.4 2 1.4 2.4 4.2 2.4 5.6.2.1.4.3.6.5.5.6.6 1.4.5 2.4-.2 1.2-.6 2.1-1.3 2.6-.2.2-.5.3-.7.3-.3.7-1 1.9-2.1 3.2.1 1.9.6 2.6.6 2.6.3.4.2 1.1-.2 1.4s-1 .3-1.4-.2c-.2-.2-1-1.3-1.1-4.2 0-.3.1-.6.3-.7 1.7-1.6 2.2-3.3 2.2-3.3.1-.3.2-.5.4-.6s.4-.2.7-.1c.1 0 .5-.4.6-1.3.1-.5 0-.7-.1-.8-.6 0-1-.5-1-1.1 0-1-.2-3.8-1.6-4.7-.1 0-.2-.1-.2-.2-1.1-1.2-2.1-1.6-3-1.9-.4-.1-.7-.3-1.1-.4-.1.4-.2.6-.2.6 0 .4-.3.7-.6.8l-1.4.6c-.2.1-.3.2-.4.2-1.3 1.3-1.4 4-1.3 4.9 0 .3-.1.5-.2.8s-.4.3-.7.3c-.2 0-.2.5-.1.9.2 1 .5 1.3.7 1.3.3-.1.4 0 .7.1.2.1.3.4.4.6 0 0 .5 1.7 2.2 3.3.2.2.3.5.3.7-.1 2.8-.9 4-1 4.2-.4.2-.7.4-.9.4z" fill="#5d5a61"/></svg>