<?xml version="1.0" encoding="utf-8"?>
<!-- Generator: Adobe Illustrator 19.2.1, SVG Export Plug-In . SVG Version: 6.00 Build 0)  -->
<svg version="1.1" id="Layer_1" xmlns="http://www.w3.org/2000/svg" xmlns:xlink="http://www.w3.org/1999/xlink" x="0px" y="0px"
	 viewBox="0 0 27 27.5" style="enable-background:new 0 0 27 27.5;" xml:space="preserve">
<style type="text/css">
	.st0{fill:#5D5A61;}
</style>
<g>
	<path class="st0" d="M19.9,27.5c-0.3,0-0.6,0-1-0.1c0,0-6.4-0.5-12.4-6.6C0.7,15.1,0.1,9,0.1,8.6c-0.4-4,1.4-7.3,4.8-8.5
		c1.3-0.5,2.7,0.2,3.3,1.4l1.6,3.5c0.5,1,0.2,2.2-0.5,3L7,10.3c0.2,0.6,1,2.4,3.8,5.2c2.8,2.8,4.6,3.6,5.3,3.8l2.2-2.2
		c0.8-0.8,2.1-1,3.1-0.5l4.1,2.1c1.2,0.6,1.7,1.9,1.4,3.1C25.9,25.5,23.3,27.5,19.9,27.5z M5.7,1.6c-0.1,0-0.2,0-0.3,0.1
		c-2.7,1-4.1,3.5-3.7,6.8l0,0c0,0.1,0.5,5.8,6,11.2c5.5,5.5,11.3,6.1,11.4,6.1c3.1,0.3,5.4-1.2,6.4-4.3c0.1-0.5-0.1-1-0.6-1.2
		l-4.1-2.1c-0.4-0.2-0.9-0.1-1.2,0.2l-2.7,2.7l-0.4,0c-0.2,0-2.5-0.3-6.6-4.4c-4.2-4.2-4.4-6.4-4.4-6.6l0-0.3L8.1,7
		c0.3-0.3,0.4-0.8,0.2-1.2L6.7,2.3C6.5,1.9,6.1,1.6,5.7,1.6z"/>
</g>
</svg>
