<svg display="none" height="0" width="0" xmlns="http://www.w3.org/2000/svg"><defs><symbol id="icon-arrow" viewBox="0 0 32 32"><path d="m32 16c0 8.837-7.163 16-16 16s-16-7.163-16-16 7.163-16 16-16 16 7.163 16 16z" fill="#fff"/><path d="m16 26.28c-.72 0-1.28-.56-1.28-1.28v-18c0-.72.56-1.28 1.28-1.28s1.28.56 1.28 1.28v18c0 .72-.56 1.28-1.28 1.28z" fill="#98c21f"/><path d="m16 26.32c-.32 0-.64-.12-.92-.36l-8-8c-.48-.48-.48-1.32 0-1.8s1.32-.48 1.8 0l7.12 7.08 7.08-7.08c.48-.48 1.32-.48 1.8 0s .48 1.32 0 1.8l-8 8c-.24.24-.56.36-.88.36z" fill="#98c21f"/></symbol><symbol id="icon-form" viewBox="0 0 32 32"><path d="m32 16c0 8.832-7.168 16-16 16s-16-7.168-16-16 7.168-16 16-16 16 7.168 16 16zm-10.08-9.6h-8.736l-4.864 4.864v12.576c0 .96.768 1.76 1.76 1.76h11.872c.96 0 1.76-.768 1.76-1.76v-15.68c-.032-.992-.832-1.76-1.792-1.76zm-9.088 1.984v2.528h-2.528zm9.696 15.456c0 .32-.256.576-.576.576h-11.872c-.32 0-.576-.256-.576-.576v-11.744h3.936c.32 0 .576-.256.576-.576v-3.968h7.936c.32 0 .576.256.576.576zm-2.176-13.344h-4.576c-.32 0-.576.256-.576.576s.256.576.576.576h4.576c.32 0 .576-.256.576-.576.032-.32-.256-.576-.576-.576zm0 2.464h-8.704c-.32 0-.576.256-.576.576s.256.576.576.576h8.736c.32 0 .576-.256.576-.576s-.288-.576-.608-.576zm0 2.464h-8.704c-.32 0-.576.256-.576.576s.256.576.576.576h8.736c.32 0 .576-.256.576-.576s-.288-.576-.608-.576zm0 2.464h-8.704c-.32 0-.576.256-.576.576s.256.576.576.576h8.736c.32 0 .576-.256.576-.576s-.288-.576-.608-.576zm0 2.464h-8.704c-.32 0-.576.256-.576.576s.256.576.576.576h8.736c.32 0 .576-.256.576-.576s-.288-.576-.608-.576z" fill="#757b82"/></symbol><symbol id="icon-job-experience" viewBox="0 0 32 32"><path d="m28.015 7.564h-6.604v-1.367c0-1.076-.873-1.949-1.949-1.949h-6.924c-1.076 0-1.949.873-1.949 1.949v1.367h-6.604c-1.396 0-2.531 1.135-2.531 2.531v15.127c0 1.396 1.135 2.531 2.531 2.531h24.029c1.396 0 2.531-1.135 2.531-2.531v-15.127c0-1.396-1.135-2.531-2.531-2.531zm-16.437-1.368c0-.524.436-.96.96-.96h6.924c.524 0 .96.436.96.96v1.367h-8.844zm17.978 19.026c0 .844-.698 1.542-1.542 1.542h-24.029c-.844 0-1.542-.698-1.542-1.542v-8.64c.785.844 2.036 1.542 3.753 2.124 2.124.698 4.829 1.164 7.767 1.28v1.629c0 .262.233.495.495.495h3.113c.262 0 .495-.233.495-.495v-1.6c4.916-.233 9.542-1.309 11.52-3.404v8.611zm-14.603-4.102v-2.996h2.095v2.996zm14.603-6.836c0 2.793-5.615 4.422-11.52 4.713v-1.367c0-.262-.233-.495-.495-.495h-3.084c-.262 0-.495.233-.495.495v1.367c-5.905-.291-11.52-1.92-11.52-4.713v-4.189c0-.844.698-1.542 1.542-1.542h24.029c.844 0 1.542.698 1.542 1.542v4.189z" fill="#98c21f"/></symbol><symbol id="icon-phone" viewBox="0 0 32 32"><path d="m16 0c-8.832 0-16 7.168-16 16s7.168 16 16 16 16-7.168 16-16-7.168-16-16-16zm9.824 22.208c-.736 2.528-2.688 4.128-5.6 3.808-.96-.064-5.248-.928-9.216-4.928-4-3.936-4.768-8.192-4.832-9.12-.288-2.88.96-5.088 3.328-5.952.704-.256 1.472.128 1.792.768l1.28 2.752c.256.544.128 1.216-.288 1.632l-1.952 1.952s.032 1.536 3.232 4.736c3.04 3.104 4.672 3.232 4.672 3.232l1.92-1.92c.448-.448 1.12-.544 1.696-.256l3.232 1.632c.608.288.928.992.736 1.664z" fill="#98c21f"/></symbol><symbol id="icon-professional-certifications" viewBox="0 0 32 32"><path d="m26.298 2.385h-20.858c-.262 0-.465-.204-.465-.465s.204-.465.465-.465h20.858c.262 0 .465.204.465.465s-.204.465-.465.465z" fill="#98c21f"/><path d="m30.051 7.796h-6.08c-.262 0-.465-.204-.465-.465s.204-.465.465-.465h5.149v-2.124c0-1.28-1.047-2.356-2.356-2.356-.262 0-.465-.204-.465-.465s.233-.465.495-.465c1.804 0 3.287 1.484 3.287 3.287v3.055z" fill="#98c21f"/><path d="m2.415 17.862c-.262 0-.465-.204-.465-.465v-12.451c0-1.92 1.571-3.491 3.491-3.491.262 0 .465.204.465.465s-.204.465-.465.465c-1.425 0-2.56 1.164-2.56 2.56v12.451c0 .262-.233.465-.465.465z" fill="#98c21f"/><path d="m24.087 30.545-22.109-.029v-16.407c0-.262.204-.465.465-.465s.465.204.465.465v15.476l20.247.029-.029-24.669c0-1.92 1.571-3.491 3.491-3.491.262 0 .465.204.465.465s-.204.465-.465.465c-1.425 0-2.56 1.164-2.56 2.56l.029 25.6z" fill="#98c21f"/><path d="m17.105 14.458c-2.385 0-4.305-1.92-4.305-4.305s1.92-4.305 4.305-4.305 4.305 1.92 4.305 4.305-1.949 4.305-4.305 4.305zm0-7.68c-1.862 0-3.375 1.513-3.375 3.375s1.513 3.375 3.375 3.375 3.375-1.513 3.375-3.375-1.513-3.375-3.375-3.375z" fill="#98c21f"/><path d="m13.818 18.88v-5.789c0-.262.204-.465.465-.465s.465.204.465.465v4.015l2.327-1.6 2.385 1.6v-4.015c0-.262.204-.465.465-.465s.465.204.465.465v5.789l-3.316-2.24-3.258 2.24z" fill="#98c21f"/><path d="m11.898 13.585h-6.429c-.262 0-.465-.204-.465-.465s.204-.465.465-.465h6.429c.262 0 .465.204.465.465s-.204.465-.465.465z" fill="#98c21f"/><path d="m12.625 18.531h-7.156c-.262 0-.465-.204-.465-.465s.204-.465.465-.465h7.156c.262 0 .465.204.465.465s-.204.465-.465.465z" fill="#98c21f"/><path d="m12.625 16.058h-7.156c-.262 0-.465-.204-.465-.465s.204-.465.465-.465h7.156c.262 0 .465.204.465.465s-.204.465-.465.465z" fill="#98c21f"/><path d="m11.258 11.113h-5.789c-.262 0-.465-.204-.465-.465s.204-.465.465-.465h5.789c.262 0 .465.204.465.465 0 .233-.204.465-.465.465z" fill="#98c21f"/><path d="m11.811 8.611h-6.342c-.262 0-.465-.204-.465-.465s.204-.465.465-.465h6.342c.262 0 .465.204.465.465s-.204.465-.465.465z" fill="#98c21f"/><path d="m19.142 21.033h-13.673c-.262 0-.465-.204-.465-.465s.204-.465.465-.465h13.673c.262 0 .465.204.465.465s-.204.465-.465.465z" fill="#98c21f"/><path d="m19.142 23.622h-13.673c-.262 0-.465-.204-.465-.465s.204-.465.465-.465h13.673c.262 0 .465.204.465.465 0 .233-.204.465-.465.465z" fill="#98c21f"/></symbol><symbol id="icon-simulation-center" viewBox="0 0 32 32"><path d="m10.444 29.12c-.262 0-.495-.233-.495-.495s.233-.495.495-.495h5.062v-5.469h-13.702c-.262 0-.495-.233-.495-.495v-18.793c0-.262.233-.495.495-.495h28.393c.262 0 .495.233.495.495v18.764c0 .262-.233.495-.495.495h-13.702v5.469h5.062c.262 0 .495.233.495.495s-.233.495-.495.495h-11.113zm19.258-7.447v-17.804h-27.404v17.804z" fill="#98c21f"/><path d="m16.029 18.298s-.029 0-.058 0c-3.113-.029-6.109-1.687-8.902-4.975-.175-.204-.145-.495.029-.669.087-.087.204-.175.32-.291l.029-.029c1.6-1.513 4.538-4.335 8.524-4.364h.029.058c3.956.029 6.924 2.851 8.524 4.364l.029.029c.116.116.233.204.32.291.204.175.204.465.029.669-2.764 3.258-5.76 4.945-8.873 4.975-.029 0-.058 0-.058 0zm-7.913-5.265c2.502 2.822 5.149 4.247 7.855 4.276 2.735-.029 5.382-1.455 7.884-4.276-1.513-1.425-4.276-4.073-7.855-4.102v0c-3.607.029-6.371 2.676-7.884 4.102z" fill="#98c21f"/><path d="m16 16.262c-1.716 0-3.113-1.396-3.113-3.113s1.396-3.113 3.113-3.113c1.716 0 3.113 1.396 3.113 3.113s-1.396 3.113-3.113 3.113zm0-5.266c-1.164 0-2.124.96-2.124 2.124s.96 2.124 2.124 2.124 2.124-.96 2.124-2.124-.96-2.124-2.124-2.124z" fill="#98c21f"/></symbol></defs></svg>