<svg id="Layer_1" enable-background="new 0 0 39 27" viewBox="0 0 39 27" xmlns="http://www.w3.org/2000/svg"><path d="m39 16.5c0-.7-.4-1.2-1-1.5v-5.3c0-.7-.5-1.3-1.2-1.3-.1-.1-.2-.1-.2-.2l-17.7-8.1c-.2-.1-.5-.1-.7 0l-17.7 8.1c-.3.1-.5.4-.5.7s.2.6.5.8l7.5 3.4h0v9.3c0 2.4 5.1 4.6 10.6 4.6s10.6-2.2 10.6-4.6v-9.3h0l7.5-3.4c.1 0 .1-.1.2-.1 0 0 .1.1.1.1v5.3c-.6.2-1 .8-1 1.5s.4 1.2 1 1.5v4.1c0 .3.3.6.6.6s.6-.3.6-.6v-4.1c.4-.3.8-.8.8-1.5zm-20.5-14.8 14.5 6.6h-14.4c-.3 0-.6.3-.6.6s.3.6.6.6h14.4l-14.4 6.6-15.8-7.2zm9 20.7c0 .8-3.5 2.9-9 2.9s-9-2.2-9-2.9v-8.6l8.6 3.9c.1.1.2.1.3.1s.2 0 .3-.1l8.6-3.9v8.6z" fill="#5d5a61"/></svg>