<?xml version="1.0" encoding="utf-8"?>
<!-- Generator: Adobe Illustrator 19.2.1, SVG Export Plug-In . SVG Version: 6.00 Build 0)  -->
<svg version="1.1" id="Layer_1" xmlns="http://www.w3.org/2000/svg" xmlns:xlink="http://www.w3.org/1999/xlink" x="0px" y="0px"
	 viewBox="0 0 39 27" style="enable-background:new 0 0 39 27;" xml:space="preserve">
<style type="text/css">
	.st0{fill:#5D5A61;}
</style>
<path class="st0" d="M39,16.5c0-0.7-0.4-1.2-1-1.5V9.7c0-0.7-0.5-1.3-1.2-1.3c-0.1-0.1-0.2-0.1-0.2-0.2L18.9,0.1
	c-0.2-0.1-0.5-0.1-0.7,0L0.5,8.2C0.2,8.3,0,8.6,0,8.9c0,0.3,0.2,0.6,0.5,0.8l7.5,3.4h0v9.3c0,2.4,5.1,4.6,10.6,4.6
	s10.6-2.2,10.6-4.6v-9.3h0l7.5-3.4c0.1,0,0.1-0.1,0.2-0.1c0,0,0.1,0.1,0.1,0.1V15c-0.6,0.2-1,0.8-1,1.5c0,0.7,0.4,1.2,1,1.5v4.1
	c0,0.3,0.3,0.6,0.6,0.6c0.3,0,0.6-0.3,0.6-0.6V18C38.6,17.7,39,17.2,39,16.5z M18.5,1.7L33,8.3H18.6c-0.3,0-0.6,0.3-0.6,0.6
	c0,0.3,0.3,0.6,0.6,0.6H33l-14.4,6.6L2.8,8.9L18.5,1.7z M27.5,22.4c0,0.8-3.5,2.9-9,2.9c-5.5,0-9-2.2-9-2.9v-8.6l8.6,3.9
	c0.1,0.1,0.2,0.1,0.3,0.1c0.1,0,0.2,0,0.3-0.1l8.6-3.9V22.4z"/>
</svg>
